<?xml version="1.0" encoding="UTF-8"?>
<svg xmlns="http://www.w3.org/2000/svg" xmlns:xlink="http://www.w3.org/1999/xlink" viewBox="0 0 24 24" width="22px" height="22px">
<g id="surface269523854">
<path style=" stroke:none;fill-rule:nonzero;fill:rgb(9.411765%,82.352942%,43.137255%);fill-opacity:1;" d="M 16.867188 2.199219 C 15.246094 2.199219 13.933594 3.511719 13.933594 5.132812 C 13.933594 5.339844 13.957031 5.546875 14.003906 5.746094 L 7.34375 9.078125 C 6.785156 8.4375 5.980469 8.070312 5.132812 8.066406 C 3.511719 8.066406 2.199219 9.378906 2.199219 11 C 2.199219 12.621094 3.511719 13.933594 5.132812 13.933594 C 5.980469 13.933594 6.785156 13.566406 7.34375 12.925781 L 14 16.253906 C 13.957031 16.457031 13.933594 16.660156 13.933594 16.867188 C 13.933594 18.488281 15.246094 19.800781 16.867188 19.800781 C 18.488281 19.800781 19.800781 18.488281 19.800781 16.867188 C 19.800781 15.246094 18.488281 13.933594 16.867188 13.933594 C 16.019531 13.933594 15.214844 14.300781 14.65625 14.941406 L 8 11.613281 C 8.042969 11.410156 8.066406 11.207031 8.066406 11 C 8.066406 10.792969 8.042969 10.589844 7.996094 10.386719 L 14.65625 7.058594 C 15.214844 7.699219 16.019531 8.066406 16.867188 8.066406 C 18.488281 8.066406 19.800781 6.753906 19.800781 5.132812 C 19.800781 3.511719 18.488281 2.199219 16.867188 2.199219 Z M 16.867188 2.199219 "/>
</g>
</svg>
